<svg xmlns="http://www.w3.org/2000/svg" viewBox="0 0 320 512"><!--! Font Awesome Pro 6.4.0 by @fontawesome - https://fontawesome.com License - https://fontawesome.com/license (Commercial License) Copyright 2023 Fonticons, Inc. -->
    <path id="icon-path" d="M48 64C21.5 64 0 85.5 0 112V400c0 26.5 21.5 48 48 48H80c26.5 0 48-21.5 48-48V112c0-26.5-21.5-48-48-48H48zm192 0c-26.5 0-48 21.5-48 48V400c0 26.5 21.5 48 48 48h32c26.5 0 48-21.5 48-48V112c0-26.5-21.5-48-48-48H240z"/>
    <defs>
        <linearGradient id="Gradient1">
        <stop class="stop1" offset="0%" />
        <stop class="stop3" offset="100%" />
        </linearGradient>
    </defs>
    <style>
    <![CDATA[
            #icon-path { fill: url(#Gradient1); }
            .stop1 { stop-color: #ff9472; }
            .stop3 { stop-color: #f2709c; }
            ]]>
    </style>
</svg>